<svg width="48" height="48" viewBox="0 0 48 48" fill="none" xmlns="http://www.w3.org/2000/svg">
<path d="M8.79382 23.3619C9.06382 23.0919 8.31757 19.8782 11.6438 17.3957C14.9701 14.9132 17.2388 16.3944 17.5576 16.2857C17.8726 16.1807 19.3538 9.68568 25.5826 7.99818C31.8113 6.31068 38.3063 9.47568 39.8363 14.7557C41.2351 19.5819 40.1513 22.8332 40.3126 23.0432C40.4701 23.2532 43.4813 23.1482 45.2213 25.9457C46.9613 28.7432 46.3313 30.4869 46.3313 30.4869L35.2463 33.9182H17.5088C17.5088 33.9182 1.88257 29.8007 1.72507 29.0619C1.56757 28.3232 1.92382 25.9232 4.47007 24.4682C6.68257 23.2044 8.31757 23.8382 8.79382 23.3619Z" fill="#E4EAEE"/>
<path d="M13.1853 34.8143C13.1853 34.8143 7.26781 36.0518 3.26656 32.9543C0.859055 31.0868 1.73656 28.0605 1.73656 28.0605C1.73656 28.0605 3.46156 29.8043 6.94531 30.2768C10.4291 30.753 14.3366 30.5918 14.3366 30.5918C14.3366 30.5918 15.3116 32.2568 18.9828 33.0218C23.5841 33.978 26.0103 31.623 26.0103 31.623C26.0103 31.623 27.2703 33.1305 31.7066 33.2355C36.1428 33.3405 38.6291 30.243 39.0453 30.1718C39.2553 30.138 40.4778 31.248 42.9003 30.858C45.2066 30.4868 46.4216 29.4855 46.4216 29.4855C46.4216 29.4855 46.7553 31.968 44.4341 33.498C42.6228 34.6905 39.4728 34.818 39.4728 34.818C39.4728 34.818 38.9928 36.6593 36.8291 37.998C34.8191 39.2468 31.3541 39.663 28.7891 38.898C25.5678 37.938 24.7691 36.4718 24.7691 36.4718C24.7691 36.4718 22.3691 37.878 18.6191 37.4018C15.0753 36.9593 13.1853 34.8143 13.1853 34.8143Z" fill="#BACDD2"/>
</svg>
