<svg width="40" height="40" viewBox="0 0 40 40" fill="none" xmlns="http://www.w3.org/2000/svg">
<path d="M2.5 11.875C2.5 9.46 4.46 7.5 6.875 7.5H33.125C35.54 7.5 37.5 9.46 37.5 11.875V28.125C37.5 29.2853 37.0391 30.3981 36.2186 31.2186C35.3981 32.0391 34.2853 32.5 33.125 32.5H6.875C5.71468 32.5 4.60188 32.0391 3.78141 31.2186C2.96094 30.3981 2.5 29.2853 2.5 28.125V11.875Z" fill="url(#paint0_linear_544_161)"/>
<path d="M2.5 11.875C2.5 9.46 4.46 7.5 6.875 7.5H33.125C35.54 7.5 37.5 9.46 37.5 11.875V28.125C37.5 29.2853 37.0391 30.3981 36.2186 31.2186C35.3981 32.0391 34.2853 32.5 33.125 32.5H6.875C5.71468 32.5 4.60188 32.0391 3.78141 31.2186C2.96094 30.3981 2.5 29.2853 2.5 28.125V11.875Z" fill="url(#paint1_linear_544_161)" fill-opacity="0.7"/>
<path d="M23.75 15C23.4185 15 23.1005 15.1317 22.8661 15.3661C22.6317 15.6005 22.5 15.9185 22.5 16.25C22.5 16.5815 22.6317 16.8995 22.8661 17.1339C23.1005 17.3683 23.4185 17.5 23.75 17.5H31.25C31.5815 17.5 31.8995 17.3683 32.1339 17.1339C32.3683 16.8995 32.5 16.5815 32.5 16.25C32.5 15.9185 32.3683 15.6005 32.1339 15.3661C31.8995 15.1317 31.5815 15 31.25 15H23.75ZM23.75 22.5C23.4185 22.5 23.1005 22.6317 22.8661 22.8661C22.6317 23.1005 22.5 23.4185 22.5 23.75C22.5 24.0815 22.6317 24.3995 22.8661 24.6339C23.1005 24.8683 23.4185 25 23.75 25H31.25C31.5815 25 31.8995 24.8683 32.1339 24.6339C32.3683 24.3995 32.5 24.0815 32.5 23.75C32.5 23.4185 32.3683 23.1005 32.1339 22.8661C31.8995 22.6317 31.5815 22.5 31.25 22.5H23.75Z" fill="url(#paint2_linear_544_161)"/>
<path d="M9.645 20.9802C9.07652 20.9815 8.53169 21.208 8.12971 21.6099C7.72774 22.0119 7.50132 22.5567 7.5 23.1252C7.50008 24.0563 7.81137 24.9606 8.38438 25.6944C8.9574 26.4282 9.75925 26.9494 10.6625 27.1752L10.795 27.2102C12.345 27.5977 13.9625 27.5977 15.51 27.2102L15.645 27.1777C16.5482 26.9519 17.3501 26.4307 17.9231 25.6969C18.4961 24.9631 18.8074 24.0588 18.8075 23.1277C18.8068 22.5588 18.5807 22.0133 18.1787 21.6108C17.7766 21.2083 17.2314 20.9815 16.6625 20.9802H9.645Z" fill="url(#paint3_linear_544_161)"/>
<path d="M13.1523 19.285C13.5978 19.285 14.0389 19.1973 14.4505 19.0268C14.8621 18.8563 15.2361 18.6064 15.5511 18.2914C15.8661 17.9763 16.116 17.6024 16.2865 17.1908C16.457 16.7792 16.5448 16.338 16.5448 15.8925C16.5448 15.447 16.457 15.0058 16.2865 14.5942C16.116 14.1826 15.8661 13.8087 15.5511 13.4936C15.2361 13.1786 14.8621 12.9287 14.4505 12.7582C14.0389 12.5877 13.5978 12.5 13.1523 12.5C12.2525 12.5 11.3896 12.8574 10.7534 13.4936C10.1172 14.1299 9.75977 14.9928 9.75977 15.8925C9.75977 16.7922 10.1172 17.6551 10.7534 18.2914C11.3896 18.9276 12.2525 19.285 13.1523 19.285Z" fill="url(#paint4_linear_544_161)"/>
<defs>
<linearGradient id="paint0_linear_544_161" x1="15" y1="7.5" x2="22.3475" y2="32.905" gradientUnits="userSpaceOnUse">
<stop stop-color="#B3E0FF"/>
<stop offset="1" stop-color="#8CD0FF"/>
</linearGradient>
<linearGradient id="paint1_linear_544_161" x1="25.4175" y1="10.57" x2="31.5825" y2="46.495" gradientUnits="userSpaceOnUse">
<stop offset="0.447" stop-color="#FF6CE8" stop-opacity="0"/>
<stop offset="1" stop-color="#FF6CE8"/>
</linearGradient>
<linearGradient id="paint2_linear_544_161" x1="26.59" y1="13.845" x2="31.6325" y2="32.9975" gradientUnits="userSpaceOnUse">
<stop stop-color="#0078D4"/>
<stop offset="1" stop-color="#0067BF"/>
</linearGradient>
<linearGradient id="paint3_linear_544_161" x1="7.5" y1="17.0227" x2="9.9975" y2="28.4552" gradientUnits="userSpaceOnUse">
<stop offset="0.125" stop-color="#9C6CFE"/>
<stop offset="1" stop-color="#7A41DC"/>
</linearGradient>
<linearGradient id="paint4_linear_544_161" x1="9.76227" y1="10.2375" x2="14.8323" y2="18.9225" gradientUnits="userSpaceOnUse">
<stop offset="0.125" stop-color="#9C6CFE"/>
<stop offset="1" stop-color="#7A41DC"/>
</linearGradient>
</defs>
</svg>
