<svg width="40" height="40" viewBox="0 0 40 40" fill="none" xmlns="http://www.w3.org/2000/svg">
<g clip-path="url(#clip0_585_296)">
<g filter="url(#filter0_d_585_296)">
<path d="M1.36523 19.6018C6.93945 25.633 12.3441 31.0627 17.5395 37.9299C23.1879 26.6955 28.9691 15.4221 38.5082 3.21348L35.9379 2.03613C27.8832 10.5783 21.6254 18.6643 16.1879 28.2736C12.4066 24.8674 6.2957 20.0471 2.56445 17.5705L1.36523 19.6018Z" fill="url(#paint0_linear_585_296)"/>
<path d="M36.1465 1.58203L38.7168 2.75879L39.292 3.02246L38.9023 3.52148C29.3962 15.6879 23.6335 26.9225 17.9863 38.1543L17.625 38.8721L17.1406 38.2314C11.9649 31.3901 6.58696 25.9886 0.998047 19.9414L0.745117 19.668L0.93457 19.3477L2.13379 17.3164L2.40137 16.8623L2.84082 17.1543C6.44738 19.5481 12.2435 24.1042 16.0596 27.4902C21.4496 18.0738 27.6487 10.0986 35.5742 1.69336L35.8203 1.43262L36.1465 1.58203Z" stroke="#00FFFF"/>
</g>
</g>
<defs>
<filter id="filter0_d_585_296" x="-23.874" y="-19.1716" width="87.9497" height="86.9861" filterUnits="userSpaceOnUse" color-interpolation-filters="sRGB">
<feFlood flood-opacity="0" result="BackgroundImageFix"/>
<feColorMatrix in="SourceAlpha" type="matrix" values="0 0 0 0 0 0 0 0 0 0 0 0 0 0 0 0 0 0 127 0" result="hardAlpha"/>
<feOffset dy="4"/>
<feGaussianBlur stdDeviation="12"/>
<feComposite in2="hardAlpha" operator="out"/>
<feColorMatrix type="matrix" values="0 0 0 0 1 0 0 0 0 0 0 0 0 0 1 0 0 0 0.8 0"/>
<feBlend mode="normal" in2="BackgroundImageFix" result="effect1_dropShadow_585_296"/>
<feBlend mode="normal" in="SourceGraphic" in2="effect1_dropShadow_585_296" result="shape"/>
</filter>
<linearGradient id="paint0_linear_585_296" x1="19.9367" y1="2.03613" x2="19.9367" y2="37.9299" gradientUnits="userSpaceOnUse">
<stop stop-color="#00FFFF"/>
<stop offset="1" stop-color="#009999"/>
</linearGradient>
<clipPath id="clip0_585_296">
<rect width="40" height="40" fill="white"/>
</clipPath>
</defs>
</svg>
