<svg width="49" height="48" viewBox="0 0 49 48" fill="none" xmlns="http://www.w3.org/2000/svg">
<g filter="url(#filter0_d_331_490)">
<path d="M31 16.3761H28.2594C28.2898 16.3503 28.3211 16.3253 28.3508 16.298C28.5881 16.0872 28.7793 15.8297 28.9125 15.5416C29.0457 15.2535 29.1181 14.9411 29.125 14.6237C29.1353 14.2766 29.0745 13.9311 28.9463 13.6083C28.8182 13.2855 28.6255 12.9923 28.38 12.7467C28.1344 12.5011 27.8413 12.3083 27.5186 12.18C27.1958 12.0518 26.8503 11.9909 26.5031 12.0011C26.1857 12.0079 25.8731 12.0802 25.5848 12.2134C25.2966 12.3467 25.039 12.5379 24.8281 12.7753C24.5363 13.1135 24.2991 13.4952 24.125 13.9066C23.9509 13.4952 23.7137 13.1135 23.4219 12.7753C23.211 12.5379 22.9534 12.3467 22.6652 12.2134C22.3769 12.0802 22.0643 12.0079 21.7469 12.0011C21.3997 11.9909 21.0542 12.0518 20.7314 12.18C20.4087 12.3083 20.1156 12.5011 19.87 12.7467C19.6245 12.9923 19.4318 13.2855 19.3037 13.6083C19.1755 13.9311 19.1147 14.2766 19.125 14.6237C19.1319 14.9411 19.2043 15.2535 19.3375 15.5416C19.4707 15.8297 19.6619 16.0872 19.8992 16.298C19.9289 16.3237 19.9602 16.3487 19.9906 16.3761H17.25C16.9185 16.3761 16.6005 16.5078 16.3661 16.7422C16.1317 16.9766 16 17.2946 16 17.6261V20.1261C16 20.4576 16.1317 20.7756 16.3661 21.01C16.6005 21.2444 16.9185 21.3761 17.25 21.3761V26.3761C17.25 26.7076 17.3817 27.0256 17.6161 27.26C17.8505 27.4944 18.1685 27.6261 18.5 27.6261H23.1875C23.2704 27.6261 23.3499 27.5932 23.4085 27.5346C23.4671 27.476 23.5 27.3965 23.5 27.3136V20.1261H17.25V17.6261H23.5V20.1261H24.75V17.6261H31V20.1261H24.75V27.3136C24.75 27.3965 24.7829 27.476 24.8415 27.5346C24.9001 27.5932 24.9796 27.6261 25.0625 27.6261H29.75C30.0815 27.6261 30.3995 27.4944 30.6339 27.26C30.8683 27.0256 31 26.7076 31 26.3761V21.3761C31.3315 21.3761 31.6495 21.2444 31.8839 21.01C32.1183 20.7756 32.25 20.4576 32.25 20.1261V17.6261C32.25 17.2946 32.1183 16.9766 31.8839 16.7422C31.6495 16.5078 31.3315 16.3761 31 16.3761ZM20.7273 15.3605C20.6181 15.2615 20.5304 15.141 20.4699 15.0066C20.4094 14.8721 20.3774 14.7266 20.3758 14.5792C20.3718 14.4065 20.4024 14.2347 20.4657 14.0739C20.529 13.9132 20.6237 13.7666 20.7443 13.6429C20.865 13.5193 21.0091 13.4209 21.1682 13.3536C21.3274 13.2863 21.4983 13.2515 21.6711 13.2511H21.7094C21.8568 13.2527 22.0023 13.2847 22.1367 13.3452C22.2712 13.4057 22.3917 13.4934 22.4906 13.6027C23.1461 14.3433 23.3773 15.5714 23.4586 16.3308C22.6961 16.2503 21.4688 16.0191 20.7273 15.3605ZM27.5242 15.3605C26.7828 16.0167 25.5523 16.248 24.7898 16.3292C24.8828 15.5081 25.1406 14.3058 25.7656 13.6034C25.8646 13.4942 25.9851 13.4065 26.1195 13.346C26.254 13.2855 26.3995 13.2535 26.5469 13.2519H26.5852C26.7579 13.253 26.9288 13.2885 27.0876 13.3565C27.2465 13.4244 27.3902 13.5234 27.5104 13.6476C27.6305 13.7718 27.7246 13.9187 27.7872 14.0798C27.8498 14.2408 27.8797 14.4127 27.875 14.5855C27.8725 14.7319 27.8399 14.8762 27.7793 15.0095C27.7187 15.1428 27.6313 15.2623 27.5227 15.3605H27.5242Z" fill="#FFD700"/>
</g>
<defs>
<filter id="filter0_d_331_490" x="0" y="0" width="48.25" height="47.6261" filterUnits="userSpaceOnUse" color-interpolation-filters="sRGB">
<feFlood flood-opacity="0" result="BackgroundImageFix"/>
<feColorMatrix in="SourceAlpha" type="matrix" values="0 0 0 0 0 0 0 0 0 0 0 0 0 0 0 0 0 0 127 0" result="hardAlpha"/>
<feOffset dy="4"/>
<feGaussianBlur stdDeviation="8"/>
<feComposite in2="hardAlpha" operator="out"/>
<feColorMatrix type="matrix" values="0 0 0 0 1 0 0 0 0 0.843137 0 0 0 0 0 0 0 0 0.5 0"/>
<feBlend mode="normal" in2="BackgroundImageFix" result="effect1_dropShadow_331_490"/>
<feBlend mode="normal" in="SourceGraphic" in2="effect1_dropShadow_331_490" result="shape"/>
</filter>
</defs>
</svg>
