<svg width="55" height="57" viewBox="0 0 55 57" fill="none" xmlns="http://www.w3.org/2000/svg">
<g filter="url(#filter0_d_531_247)">
<path d="M33.75 21.625H31.25V19.75C31.25 18.7554 30.8549 17.8016 30.1517 17.0983C29.4484 16.3951 28.4946 16 27.5 16C26.5054 16 25.5516 16.3951 24.8483 17.0983C24.1451 17.8016 23.75 18.7554 23.75 19.75V21.625H21.25C20.9185 21.625 20.6005 21.7567 20.3661 21.9911C20.1317 22.2255 20 22.5435 20 22.875V31.625C20 31.9565 20.1317 32.2745 20.3661 32.5089C20.6005 32.7433 20.9185 32.875 21.25 32.875H33.75C34.0815 32.875 34.3995 32.7433 34.6339 32.5089C34.8683 32.2745 35 31.9565 35 31.625V22.875C35 22.5435 34.8683 22.2255 34.6339 21.9911C34.3995 21.7567 34.0815 21.625 33.75 21.625ZM25 19.75C25 19.087 25.2634 18.4511 25.7322 17.9822C26.2011 17.5134 26.837 17.25 27.5 17.25C28.163 17.25 28.7989 17.5134 29.2678 17.9822C29.7366 18.4511 30 19.087 30 19.75V21.625H25V19.75Z" fill="white"/>
</g>
<defs>
<filter id="filter0_d_531_247" x="0" y="0" width="55" height="56.875" filterUnits="userSpaceOnUse" color-interpolation-filters="sRGB">
<feFlood flood-opacity="0" result="BackgroundImageFix"/>
<feColorMatrix in="SourceAlpha" type="matrix" values="0 0 0 0 0 0 0 0 0 0 0 0 0 0 0 0 0 0 127 0" result="hardAlpha"/>
<feOffset dy="4"/>
<feGaussianBlur stdDeviation="10"/>
<feComposite in2="hardAlpha" operator="out"/>
<feColorMatrix type="matrix" values="0 0 0 0 0 0 0 0 0 1 0 0 0 0 1 0 0 0 0.5 0"/>
<feBlend mode="normal" in2="BackgroundImageFix" result="effect1_dropShadow_531_247"/>
<feBlend mode="normal" in="SourceGraphic" in2="effect1_dropShadow_531_247" result="shape"/>
</filter>
</defs>
</svg>
