<svg width="86" height="91" viewBox="0 0 86 91" fill="none" xmlns="http://www.w3.org/2000/svg">
<g filter="url(#filter0_d_585_276)">
<path d="M58 34.5H52V30C52 27.6131 51.0518 25.3239 49.364 23.636C47.6761 21.9482 45.3869 21 43 21C40.6131 21 38.3239 21.9482 36.636 23.636C34.9482 25.3239 34 27.6131 34 30V34.5H28C27.2044 34.5 26.4413 34.8161 25.8787 35.3787C25.3161 35.9413 25 36.7044 25 37.5V58.5C25 59.2957 25.3161 60.0587 25.8787 60.6213C26.4413 61.1839 27.2044 61.5 28 61.5H58C58.7957 61.5 59.5587 61.1839 60.1213 60.6213C60.6839 60.0587 61 59.2957 61 58.5V37.5C61 36.7044 60.6839 35.9413 60.1213 35.3787C59.5587 34.8161 58.7957 34.5 58 34.5ZM37 30C37 28.4087 37.6321 26.8826 38.7574 25.7574C39.8826 24.6321 41.4087 24 43 24C44.5913 24 46.1174 24.6321 47.2426 25.7574C48.3679 26.8826 49 28.4087 49 30V34.5H37V30Z" fill="url(#paint0_linear_585_276)"/>
<path d="M43 20.5C45.5196 20.5 47.9362 21.5006 49.7178 23.2822C51.4994 25.0638 52.5 27.4804 52.5 30V34H58C58.9283 34 59.8182 34.369 60.4746 35.0254C61.131 35.6818 61.5 36.5717 61.5 37.5V58.5C61.5 59.4283 61.131 60.3182 60.4746 60.9746C59.8182 61.631 58.9283 62 58 62H28C27.0717 62 26.1818 61.631 25.5254 60.9746C24.869 60.3182 24.5 59.4283 24.5 58.5V37.5C24.5 36.5717 24.869 35.6818 25.5254 35.0254C26.1818 34.369 27.0717 34 28 34H33.5V30C33.5 27.4804 34.5006 25.0638 36.2822 23.2822C38.0638 21.5006 40.4804 20.5 43 20.5ZM43 24.5C41.5413 24.5 40.1428 25.0799 39.1113 26.1113C38.0799 27.1428 37.5 28.5413 37.5 30V34H48.5V30C48.5 28.5413 47.9201 27.1428 46.8887 26.1113C45.8572 25.0799 44.4587 24.5 43 24.5Z" stroke="#00FFFF"/>
</g>
<defs>
<filter id="filter0_d_585_276" x="0" y="0" width="86" height="90.5" filterUnits="userSpaceOnUse" color-interpolation-filters="sRGB">
<feFlood flood-opacity="0" result="BackgroundImageFix"/>
<feColorMatrix in="SourceAlpha" type="matrix" values="0 0 0 0 0 0 0 0 0 0 0 0 0 0 0 0 0 0 127 0" result="hardAlpha"/>
<feOffset dy="4"/>
<feGaussianBlur stdDeviation="12"/>
<feComposite in2="hardAlpha" operator="out"/>
<feColorMatrix type="matrix" values="0 0 0 0 1 0 0 0 0 0 0 0 0 0 1 0 0 0 0.8 0"/>
<feBlend mode="normal" in2="BackgroundImageFix" result="effect1_dropShadow_585_276"/>
<feBlend mode="normal" in="SourceGraphic" in2="effect1_dropShadow_585_276" result="shape"/>
</filter>
<linearGradient id="paint0_linear_585_276" x1="25" y1="21.5" x2="61" y2="61.5" gradientUnits="userSpaceOnUse">
<stop stop-color="#00FFFF"/>
<stop offset="1" stop-color="#009999"/>
</linearGradient>
</defs>
</svg>
