<svg width="51" height="44" viewBox="0 0 51 44" fill="none" xmlns="http://www.w3.org/2000/svg">
<g filter="url(#filter0_d_425_1082)">
<path d="M28.5 17.625C28.5 18.2431 28.3167 18.8473 27.9733 19.3612C27.63 19.8751 27.1419 20.2756 26.5709 20.5121C25.9999 20.7486 25.3715 20.8105 24.7653 20.69C24.1592 20.5694 23.6023 20.2717 23.1653 19.8347C22.7283 19.3977 22.4306 18.8408 22.31 18.2347C22.1895 17.6285 22.2514 17.0001 22.4879 16.4291C22.7244 15.8581 23.1249 15.37 23.6388 15.0267C24.1527 14.6833 24.7569 14.5 25.375 14.5C26.2038 14.5 26.9987 14.8292 27.5847 15.4153C28.1708 16.0013 28.5 16.7962 28.5 17.625ZM34.75 12.625V22.625C34.75 22.7908 34.6842 22.9497 34.5669 23.0669C34.4497 23.1842 34.2908 23.25 34.125 23.25H16.625C16.4592 23.25 16.3003 23.1842 16.1831 23.0669C16.0658 22.9497 16 22.7908 16 22.625V12.625C16 12.4592 16.0658 12.3003 16.1831 12.1831C16.3003 12.0658 16.4592 12 16.625 12H34.125C34.2908 12 34.4497 12.0658 34.5669 12.1831C34.6842 12.3003 34.75 12.4592 34.75 12.625ZM33.5 16.2461C32.7903 16.0363 32.1444 15.6522 31.6211 15.1289C31.0978 14.6056 30.7137 13.9597 30.5039 13.25H20.2461C20.0363 13.9597 19.6522 14.6056 19.1289 15.1289C18.6056 15.6522 17.9597 16.0363 17.25 16.2461V19.0039C17.9597 19.2137 18.6056 19.5978 19.1289 20.1211C19.6522 20.6444 20.0363 21.2903 20.2461 22H30.5039C30.7137 21.2903 31.0978 20.6444 31.6211 20.1211C32.1444 19.5978 32.7903 19.2137 33.5 19.0039V16.2461Z" fill="#FFD700"/>
</g>
<defs>
<filter id="filter0_d_425_1082" x="0" y="0" width="50.75" height="43.25" filterUnits="userSpaceOnUse" color-interpolation-filters="sRGB">
<feFlood flood-opacity="0" result="BackgroundImageFix"/>
<feColorMatrix in="SourceAlpha" type="matrix" values="0 0 0 0 0 0 0 0 0 0 0 0 0 0 0 0 0 0 127 0" result="hardAlpha"/>
<feOffset dy="4"/>
<feGaussianBlur stdDeviation="8"/>
<feComposite in2="hardAlpha" operator="out"/>
<feColorMatrix type="matrix" values="0 0 0 0 1 0 0 0 0 0.843137 0 0 0 0 0 0 0 0 0.5 0"/>
<feBlend mode="normal" in2="BackgroundImageFix" result="effect1_dropShadow_425_1082"/>
<feBlend mode="normal" in="SourceGraphic" in2="effect1_dropShadow_425_1082" result="shape"/>
</filter>
</defs>
</svg>
