<svg width="40" height="40" viewBox="0 0 40 40" fill="none" xmlns="http://www.w3.org/2000/svg">
<path d="M36.25 1.25H3.75C2.36875 1.25 1.25 2.36875 1.25 3.75V36.25C1.25 37.6312 2.36875 38.75 3.75 38.75H36.25C37.6312 38.75 38.75 37.6312 38.75 36.25V3.75C38.75 2.36875 37.6312 1.25 36.25 1.25Z" fill="#8E24AA"/>
<path d="M34.2813 1.25H3.59376C2.97355 1.2545 2.38001 1.50287 1.94145 1.94144C1.50288 2.38001 1.25451 2.97354 1.25001 3.59375V34.1875C1.24688 35.4813 2.29376 36.5281 3.58751 36.5312H34.25C35.5438 36.5344 36.5906 35.4875 36.5938 34.1937V3.59375C36.6219 2.32812 35.6156 1.27813 34.35 1.25H34.2813Z" fill="#AB47BC"/>
<path opacity="0.3" d="M12.4067 4.03075C12.4067 3.312 11.9067 3.09325 9.03174 3.187C6.62549 3.28075 5.43799 3.562 4.71924 4.437C4.00049 5.312 3.81299 7.09325 3.78174 9.21825C3.78174 10.7183 3.78174 12.1245 4.56299 12.1245C5.62549 12.1245 5.62549 9.65575 6.50049 8.28075C8.18799 5.562 12.4067 4.96825 12.4067 4.03075Z" fill="#FAFAFA"/>
<path d="M9.12207 11.5222H12.3564V28.6753H9.12207V11.5222ZM16.2627 11.5222H22.0596C23.8471 11.5222 25.4064 11.8816 26.7314 12.6003C28.0564 13.3191 29.0783 14.3253 29.7971 15.6191C30.5158 16.9128 30.8752 18.4066 30.8752 20.1003C30.8752 21.7941 30.5158 23.2878 29.7971 24.5816C29.0783 25.8753 28.0564 26.8816 26.7314 27.6003C25.4064 28.3191 23.8471 28.6785 22.0596 28.6785H16.2627V11.5222ZM21.9158 25.6097C23.7689 25.6097 25.1814 25.1191 26.1564 24.1378C27.1314 23.1566 27.6189 21.8097 27.6189 20.1003C27.6189 18.391 27.1314 17.0441 26.1564 16.0628C25.1814 15.0816 23.7689 14.591 21.9158 14.591H19.4971V25.6128H21.9158V25.6097Z" fill="#FAFAFA"/>
</svg>
