<svg width="40" height="40" viewBox="0 0 40 40" fill="none" xmlns="http://www.w3.org/2000/svg">
<path d="M3.87354 35.923C3.87354 35.923 5.01729 40.3155 12.1617 39.1911L13.3823 36.2511L11.326 34.0161L5.63541 32.1399L3.87666 35.923" fill="#34484C"/>
<path d="M26.645 27.69C26.645 29.2475 25.8463 29.6569 23.8263 30.51L6.57 37.7956C6.19957 37.7958 5.83275 37.7229 5.49049 37.5812C5.14824 37.4395 4.83727 37.2318 4.57537 36.9698C4.31347 36.7079 4.10577 36.3968 3.96415 36.0546C3.82252 35.7123 3.74975 35.3454 3.75 34.975V10.7312C3.75 9.1725 4.66625 8.65375 6.57 7.91062L23.8263 0.625C24.1965 0.625 24.5632 0.69795 24.9052 0.839684C25.2473 0.981418 25.5581 1.18916 25.8199 1.45103C26.0816 1.71291 26.2892 2.0238 26.4308 2.36593C26.5724 2.70806 26.6452 3.07473 26.645 3.445V27.695" fill="#085B50"/>
<path d="M5.31885 37.4983C5.31885 37.4983 11.7857 39.3546 12.1626 39.1946C12.5407 39.0352 11.922 36.3902 11.922 36.3902L9.58385 33.8696L7.4051 33.7683L7.02197 34.3121L5.31885 37.4983Z" fill="#34484C"/>
<path d="M23.4198 2.29983L4.27734 10.3411L5.17484 15.4973L8.02484 15.7805L17.533 14.2498L23.4455 11.1517L27.7986 5.19108C26.8473 3.48483 25.4511 2.42921 23.4198 2.29858" fill="#F4F5F5"/>
<path d="M9.3501 12.125C9.3501 11.6718 9.42885 11.3112 9.58447 11.0037C7.62447 10.8212 5.77322 10.2537 4.4251 9.03809C3.9776 9.45059 3.75635 9.96309 3.75635 10.7256V34.97C3.75651 35.7179 4.05365 36.4351 4.58245 36.964C5.11125 37.493 5.82843 37.7903 6.57635 37.7906L9.36197 36.6137C9.3538 36.5323 9.34963 36.4505 9.34947 36.3687L9.3501 12.125Z" fill="#34484C"/>
<path d="M32.7364 30.0789C32.7364 31.6364 31.9383 32.0458 29.9164 32.8989L12.1626 39.1927C11.7923 39.1928 11.4256 39.1199 11.0835 38.9782C10.7413 38.8365 10.4305 38.6288 10.1686 38.3669C9.90681 38.105 9.69915 37.7941 9.55753 37.4519C9.41591 37.1097 9.3431 36.743 9.34326 36.3727V12.1289C9.34326 10.5696 10.2595 10.0514 12.1626 9.30707L29.9164 3.0127C30.2868 3.01253 30.6535 3.08536 30.9957 3.22702C31.338 3.36868 31.6489 3.57639 31.9108 3.83829C32.1727 4.10018 32.3804 4.41112 32.5221 4.75333C32.6637 5.09555 32.7365 5.46232 32.7364 5.8327V30.0827" fill="#089083"/>
<path d="M25.3868 10.4131C25.4049 10.4598 25.4135 10.5097 25.4123 10.5597C25.4111 10.6098 25.4 10.6592 25.3797 10.705C25.3593 10.7508 25.3302 10.7921 25.2939 10.8266C25.2576 10.8612 25.2148 10.8882 25.1681 10.9062L15.7243 14.5493C15.6777 14.5675 15.6279 14.5762 15.5779 14.5749C15.5279 14.5736 15.4786 14.5624 15.433 14.542C15.3873 14.5215 15.3462 14.4922 15.312 14.4557C15.2778 14.4191 15.2512 14.3762 15.2337 14.3293C15.215 14.2829 15.2058 14.2333 15.2066 14.1833C15.2074 14.1333 15.2182 14.0839 15.2383 14.0381C15.2585 13.9924 15.2876 13.9511 15.3239 13.9167C15.3603 13.8824 15.4031 13.8556 15.4499 13.8381L24.8924 10.195C25.0906 10.12 25.3112 10.2174 25.3862 10.4137M25.3868 12.1506C25.4049 12.1973 25.4135 12.2472 25.4123 12.2972C25.4111 12.3473 25.4 12.3967 25.3797 12.4425C25.3593 12.4883 25.3302 12.5296 25.2939 12.5641C25.2576 12.5987 25.2148 12.6257 25.1681 12.6437L15.7243 16.2868C15.6778 16.305 15.6281 16.3137 15.5781 16.3126C15.5282 16.3114 15.4789 16.3003 15.4333 16.28C15.3877 16.2596 15.3465 16.2304 15.3123 16.194C15.278 16.1577 15.2513 16.1148 15.2337 16.0681C15.2151 16.0216 15.2059 15.9719 15.2067 15.9218C15.2076 15.8717 15.2184 15.8223 15.2385 15.7765C15.2586 15.7306 15.2877 15.6892 15.324 15.6547C15.3603 15.6202 15.4031 15.5933 15.4499 15.5756L24.8924 11.9324C24.9391 11.9143 24.989 11.9055 25.0391 11.9066C25.0892 11.9077 25.1386 11.9186 25.1844 11.9388C25.2303 11.959 25.2717 11.9881 25.3063 12.0243C25.3409 12.0605 25.3681 12.1032 25.3862 12.1499M22.1762 15.1831C22.2524 15.3806 22.2056 15.5806 22.0699 15.6331L15.6224 18.1193C15.4874 18.1706 15.3174 18.0531 15.2424 17.8568C15.1674 17.6593 15.2143 17.4593 15.3487 17.4087L21.7974 14.9212C21.9306 14.8699 22.1024 14.9856 22.1762 15.1831Z" fill="#78111F"/>
</svg>
