<svg width="93" height="77" viewBox="0 0 93 77" fill="none" xmlns="http://www.w3.org/2000/svg">
<path d="M91.0851 61.8856C84.2422 73.7913 74.0991 84.7822 61.8514 95.1902C59.5502 97.1457 56.4569 97.9482 53.4701 97.3806C42.1547 95.2294 29.1044 89.4165 15.2516 81.9094C13.637 81.0346 12.3124 79.719 11.4051 78.1414C3.28612 64.0317 -1.00279 49.6966 0.199735 35.0372C0.329597 33.4527 0.844697 31.9159 1.71564 30.5773C9.40002 18.7687 17.6957 8.49765 27.3972 1.75725C30.2014 -0.191435 33.8479 -0.533506 37.0018 0.801639L74.4064 16.637C76.4124 17.4863 78.079 18.9635 79.1473 20.8356C85.8924 32.6511 90.4956 44.31 92.2504 55.7604C92.5742 57.87 92.1525 60.0288 91.0851 61.8856Z" fill="#8C1E40"/>
<path d="M37.002 0.801639L37.1717 0.873106L50.6678 37.0233C38.2816 55.1511 25.9897 69.1119 13.7653 80.0798C13.606 80.2219 13.4389 80.3504 13.2744 80.4815C12.5403 79.7999 11.9073 79.0127 11.4061 78.1414C3.2871 64.0317 -1.00181 49.6966 0.200711 35.0372C0.330574 33.4527 0.845779 31.9159 1.71672 30.5773C9.4011 18.7687 17.6966 8.49765 27.3982 1.75725C30.2015 -0.191435 33.8472 -0.533506 37.002 0.801639Z" fill="#C13358"/>
<path d="M30.5762 0.322473C32.6817 -0.213627 34.9447 -0.0689493 37.0018 0.801576L74.4064 16.6369C76.4123 17.4862 78.0789 18.9635 79.1473 20.8356C85.8923 32.6511 90.4955 44.31 92.2504 55.7604C92.4452 57.0326 92.3646 58.3217 92.0391 59.5531C78.7784 56.1833 63.2132 50.4964 52.0563 44.3253C49.2842 42.7919 46.9777 40.5615 45.4125 37.8393C39.8596 28.1776 34.2504 13.8075 30.5762 0.322473Z" fill="#ED4F80"/>
<path d="M52.7446 66.6193C49.8037 67.4124 47.7233 69.7354 48.1034 71.8101C48.4843 73.8889 51.1889 74.9262 54.1385 74.1238C57.0837 73.323 59.1521 70.994 58.7616 68.9245C58.3738 66.8584 55.6812 65.827 52.7446 66.6193Z" fill="white"/>
<path d="M50.551 54.8089C47.6239 55.5884 45.5521 57.8825 45.9278 59.935C46.3044 61.9918 48.9944 63.0215 51.9301 62.2335C54.8615 61.4463 56.9211 59.147 56.5359 57.0988C56.1506 55.0548 53.4737 54.0303 50.551 54.8089Z" fill="white"/>
<path d="M22.2972 40.718C20.3146 40.3113 18.0403 42.7722 17.1944 46.2509C16.3373 49.773 17.2568 53.0381 19.2723 53.507C21.305 53.9801 23.6399 51.4264 24.4641 47.8405C25.277 44.3005 24.2962 41.1282 22.2972 40.718Z" fill="white"/>
<path d="M26.8294 21.5566C24.897 21.2392 22.7092 23.5844 21.9205 26.8265C21.1223 30.1078 22.0487 33.0972 24.0122 33.4691C25.9922 33.8444 28.2371 31.4149 29.0032 28.0774C29.7608 24.7809 28.7773 21.8766 26.8294 21.5566Z" fill="white"/>
<path d="M69.0533 40.5307C69.8013 42.5628 72.1423 44.8817 74.2703 45.7037C76.3853 46.5206 77.4873 45.548 76.7437 43.5372C76.0017 41.5281 73.691 39.2245 71.5717 38.3864C69.4385 37.5422 68.3053 38.4995 69.0533 40.5307Z" fill="white"/>
<path d="M56.4836 35.6181C57.2403 37.6851 59.6515 40.0558 61.8557 40.9076C64.0469 41.7543 65.2035 40.7774 64.4529 38.7326C63.7023 36.6895 61.3241 34.334 59.1277 33.4661C56.9174 32.593 55.7278 33.5528 56.4836 35.6181Z" fill="white"/>
<path d="M65.3519 30.4775C66.0973 32.5011 68.4418 34.837 70.5767 35.6879C72.6987 36.5338 73.8085 35.5909 73.0683 33.5878C72.3289 31.5863 70.0157 29.2666 67.8886 28.3995C65.7493 27.5281 64.6082 28.4548 65.3519 30.4775Z" fill="white"/>
<path d="M52.7424 25.394C53.4956 27.4525 55.9102 29.8411 58.1222 30.7227C60.3203 31.5992 61.4856 30.6529 60.7376 28.6166C59.9904 26.582 57.6087 24.2095 55.4054 23.3118C53.1882 22.4089 51.9901 23.3381 52.7424 25.394Z" fill="white"/>
<path d="M61.6666 20.465C62.4085 22.4809 64.7564 24.8329 66.8983 25.7128C69.0272 26.5876 70.1449 25.6736 69.4081 23.679C68.6722 21.6861 66.3554 19.3494 64.2214 18.4541C62.0743 17.553 60.9255 18.4507 61.6666 20.465Z" fill="white"/>
<path d="M49.0159 15.2124C49.7657 17.2623 52.1838 19.668 54.4027 20.5802C56.6077 21.4864 57.7817 20.5708 57.0363 18.543C56.2917 16.516 53.9066 14.1274 51.6964 13.1999C49.4731 12.2664 48.2671 13.1641 49.0159 15.2124Z" fill="white"/>
</svg>
