<svg width="48" height="48" viewBox="0 0 48 48" fill="none" xmlns="http://www.w3.org/2000/svg">
<path d="M9.46465 14.7254H4.8709C4.25965 14.7254 3.76465 14.2304 3.76465 13.6192V10.9117C3.76465 10.3004 4.25965 9.80542 4.8709 9.80542H9.46465C10.0759 9.80542 10.5709 10.3004 10.5709 10.9117V13.6192C10.5699 13.9123 10.453 14.1931 10.2458 14.4003C10.0385 14.6076 9.75774 14.7244 9.46465 14.7254Z" fill="#90A4AE"/>
<path d="M6.10547 15.1954H4.60547V11.2954C4.60547 10.8829 4.94297 10.5454 5.35547 10.5454C5.76797 10.5454 6.10547 10.8829 6.10547 11.2954V15.1954Z" fill="#94D1E0"/>
<path d="M15.8848 13.4253H13.8185C13.406 13.4253 13.0723 13.0916 13.0723 12.6791V10.6128C13.0723 10.2003 13.271 10.0203 13.8185 9.86659C14.366 9.71284 15.3635 9.69409 15.8848 9.86659C16.3123 10.0091 16.631 10.2003 16.631 10.6128V12.6791C16.631 13.0916 16.2935 13.4253 15.8848 13.4253Z" fill="#546E7A"/>
<path d="M1.5 22.0867H46.5V44.6392H1.5V22.0867Z" fill="#212121"/>
<path d="M1.5 44.1296V45.1534C1.5 45.8959 2.10375 46.4996 2.84625 46.4996H45.1575C45.9 46.4996 46.5037 45.8959 46.5037 45.1534V44.1296H1.5Z" fill="#B0BEC5"/>
<path d="M16.2524 15.2057H13.4436C12.5286 15.2057 11.7861 14.4632 11.7861 13.5482V13.3045C11.7861 12.3895 12.5286 11.647 13.4436 11.647H16.2524C17.1674 11.647 17.9099 12.3895 17.9099 13.3045V13.5482C17.9104 13.766 17.8678 13.9818 17.7847 14.1831C17.7016 14.3844 17.5795 14.5673 17.4255 14.7214C17.2715 14.8754 17.0886 14.9974 16.8873 15.0806C16.6859 15.1637 16.4702 15.2062 16.2524 15.2057Z" fill="#90A4AE"/>
<path d="M45.6488 12.8101H3.01875C2.17875 12.8101 1.5 13.4888 1.5 14.3288V22.4738H46.5V13.6613C46.5 13.1888 46.1175 12.8101 45.6488 12.8101Z" fill="#B0BEC5"/>
<path d="M42.1845 20.715H35.3782C35.1872 20.715 35.0041 20.6391 34.8691 20.5041C34.7341 20.3691 34.6582 20.186 34.6582 19.995V15.2512C34.6582 14.8537 34.9807 14.5312 35.3782 14.5312H42.1845C42.582 14.5312 42.9045 14.8537 42.9045 15.2512V19.9988C42.9045 20.3925 42.5857 20.715 42.1845 20.715Z" fill="#78909C"/>
<path d="M34.6582 19.815V15.33C34.6582 14.8875 35.0145 14.5312 35.457 14.5312H42.1282C42.5032 14.5312 42.657 14.7375 42.657 14.7375L34.917 20.52C34.917 20.52 34.6582 20.3625 34.6582 19.815Z" fill="#757575"/>
<path d="M36.1655 15.6606H41.3968V19.5869H36.1655V15.6606Z" fill="#212121"/>
<path d="M3.9675 43.4505H2.1375C1.785 43.4505 1.5 43.1655 1.5 42.813V25.6043C1.5 25.2518 1.785 24.9668 2.1375 24.9668H3.9675C4.32 24.9668 4.605 25.2518 4.605 25.6043V42.813C4.605 43.1655 4.31625 43.4505 3.9675 43.4505ZM45.855 43.4505H44.025C43.6725 43.4505 43.3875 43.1655 43.3875 42.813V25.6043C43.3875 25.2518 43.6725 24.9668 44.025 24.9668H45.855C46.2075 24.9668 46.4925 25.2518 46.4925 25.6043V42.813C46.4925 43.1655 46.2075 43.4505 45.855 43.4505Z" fill="#616161"/>
<path d="M3.01465 45.9904C2.60215 45.9904 2.26465 45.6529 2.26465 45.2404V44.3254H3.76465V45.2404C3.76465 45.4393 3.68563 45.6301 3.54498 45.7707C3.40433 45.9114 3.21356 45.9904 3.01465 45.9904ZM45.6972 21.9454H44.1972V14.2954C44.1972 13.8829 44.5347 13.5454 44.9472 13.5454C45.3597 13.5454 45.6972 13.8829 45.6972 14.2954V21.9454ZM4.18465 21.9454H2.68465V14.2954C2.68465 13.8829 3.02215 13.5454 3.43465 13.5454C3.84715 13.5454 4.18465 13.8829 4.18465 14.2954V21.9454ZM44.9472 45.9904C44.5347 45.9904 44.1972 45.6529 44.1972 45.2404V44.3254H45.6972V45.2404C45.6972 45.4393 45.6181 45.6301 45.4775 45.7707C45.3368 45.9114 45.1461 45.9904 44.9472 45.9904Z" fill="#B9E4EA"/>
<path d="M22.7929 18.9075C22.7104 18.9075 22.6392 18.84 22.6392 18.7537V14.8725C22.6392 14.79 22.7067 14.7188 22.7929 14.7188H31.5004C31.5829 14.7188 31.6542 14.7862 31.6542 14.8725V18.7537C31.6542 18.8362 31.5867 18.9075 31.5004 18.9075H22.7929Z" fill="#FCEBCD"/>
<path d="M31.4629 14.91V18.72H22.8304V14.91H31.4629ZM31.5004 14.5312H22.7929C22.6054 14.5312 22.4517 14.685 22.4517 14.8725V18.7537C22.4517 18.9412 22.6054 19.095 22.7929 19.095H31.5004C31.6879 19.095 31.8417 18.9412 31.8417 18.7537V14.8725C31.8417 14.685 31.6917 14.5312 31.5004 14.5312Z" fill="#78909C"/>
<path d="M24.2026 18.1843C23.9176 18.1843 23.6851 17.9518 23.6851 17.6668V15.9643C23.6851 15.6793 23.9176 15.4468 24.2026 15.4468C24.4876 15.4468 24.7201 15.6793 24.7201 15.9643V17.6668C24.7201 17.9518 24.4876 18.1843 24.2026 18.1843ZM25.6688 18.1843C25.4513 18.1843 25.2751 18.008 25.2751 17.7905V15.8405C25.2751 15.7361 25.3165 15.6359 25.3904 15.5621C25.4642 15.4883 25.5644 15.4468 25.6688 15.4468C25.7732 15.4468 25.8734 15.4883 25.9472 15.5621C26.0211 15.6359 26.0626 15.7361 26.0626 15.8405V17.7905C26.0626 18.008 25.8863 18.1843 25.6688 18.1843ZM26.9588 18.1843C26.8822 18.1843 26.8088 18.1539 26.7546 18.0997C26.7005 18.0456 26.6701 17.9721 26.6701 17.8955V15.7393C26.6701 15.6627 26.7005 15.5893 26.7546 15.5351C26.8088 15.481 26.8822 15.4505 26.9588 15.4505C27.0354 15.4505 27.1088 15.481 27.163 15.5351C27.2171 15.5893 27.2476 15.6627 27.2476 15.7393V17.8955C27.2476 18.053 27.1201 18.1843 26.9588 18.1843Z" fill="white"/>
<path d="M27.1468 45.4123C33.9379 45.4123 39.4431 39.9071 39.4431 33.1161C39.4431 26.325 33.9379 20.8198 27.1468 20.8198C20.3558 20.8198 14.8506 26.325 14.8506 33.1161C14.8506 39.9071 20.3558 45.4123 27.1468 45.4123Z" fill="#616161"/>
<path d="M27.147 43.7924C33.0433 43.7924 37.8232 39.0125 37.8232 33.1162C37.8232 27.2199 33.0433 22.4399 27.147 22.4399C21.2506 22.4399 16.4707 27.2199 16.4707 33.1162C16.4707 39.0125 21.2506 43.7924 27.147 43.7924Z" fill="#E0E0E0"/>
<path d="M27.1457 40.7402C31.3562 40.7402 34.7695 37.3269 34.7695 33.1164C34.7695 28.9059 31.3562 25.4927 27.1457 25.4927C22.9352 25.4927 19.522 28.9059 19.522 33.1164C19.522 37.3269 22.9352 40.7402 27.1457 40.7402Z" fill="#2F7889"/>
<path d="M27.1464 42.9254C32.5643 42.9254 36.9564 38.5333 36.9564 33.1154C36.9564 27.6975 32.5643 23.3054 27.1464 23.3054C21.7285 23.3054 17.3364 27.6975 17.3364 33.1154C17.3364 38.5333 21.7285 42.9254 27.1464 42.9254Z" fill="black"/>
<path d="M27.146 40.5942C31.2757 40.5942 34.6235 37.2464 34.6235 33.1167C34.6235 28.9869 31.2757 25.6392 27.146 25.6392C23.0162 25.6392 19.6685 28.9869 19.6685 33.1167C19.6685 37.2464 23.0162 40.5942 27.146 40.5942Z" fill="#2F7889"/>
<path d="M25.3762 26.8429C23.0099 27.3792 21.5962 29.6817 21.5962 31.3804C21.5962 32.7567 22.5074 32.4117 22.7999 31.9129C23.5537 30.6342 24.4649 29.5692 26.0362 29.1229C26.6662 28.9429 27.4012 28.5492 27.3262 27.8142C27.2212 26.7679 26.1824 26.6592 25.3762 26.8429Z" fill="#94D1E0"/>
<path opacity="0.25" d="M27.1456 36.4538C28.9889 36.4538 30.4831 34.9596 30.4831 33.1163C30.4831 31.2731 28.9889 29.7788 27.1456 29.7788C25.3024 29.7788 23.8081 31.2731 23.8081 33.1163C23.8081 34.9596 25.3024 36.4538 27.1456 36.4538Z" fill="black"/>
</svg>
