<svg width="84" height="86" viewBox="0 0 84 86" fill="none" xmlns="http://www.w3.org/2000/svg">
<g filter="url(#filter0_d_585_299)">
<path d="M57 20H27C26.2044 20 25.4413 20.3161 24.8787 20.8787C24.3161 21.4413 24 22.2044 24 23V33.5C24 43.385 28.785 49.3756 32.7994 52.6606C37.1231 56.1969 41.4244 57.3969 41.6119 57.4475C41.8697 57.5176 42.1416 57.5176 42.3994 57.4475C42.5869 57.3969 46.8825 56.1969 51.2119 52.6606C55.215 49.3756 60 43.385 60 33.5V23C60 22.2044 59.6839 21.4413 59.1213 20.8787C58.5587 20.3161 57.7957 20 57 20ZM50.565 33.0613L40.065 43.5613C39.9257 43.7007 39.7603 43.8114 39.5782 43.8868C39.3961 43.9623 39.2009 44.0012 39.0037 44.0012C38.8066 44.0012 38.6114 43.9623 38.4293 43.8868C38.2472 43.8114 38.0818 43.7007 37.9425 43.5613L33.4425 39.0613C33.161 38.7798 33.0029 38.398 33.0029 38C33.0029 37.602 33.161 37.2202 33.4425 36.9387C33.724 36.6573 34.1057 36.4992 34.5037 36.4992C34.9018 36.4992 35.2835 36.6573 35.565 36.9387L39 40.3794L48.4387 30.9387C48.5781 30.7994 48.7436 30.6888 48.9257 30.6134C49.1077 30.538 49.3029 30.4992 49.5 30.4992C49.6971 30.4992 49.8923 30.538 50.0743 30.6134C50.2564 30.6888 50.4219 30.7994 50.5613 30.9387C50.7006 31.0781 50.8112 31.2436 50.8866 31.4257C50.962 31.6077 51.0008 31.8029 51.0008 32C51.0008 32.1971 50.962 32.3923 50.8866 32.5743C50.8112 32.7564 50.7006 32.9219 50.5613 33.0613H50.565Z" fill="url(#paint0_linear_585_299)"/>
<path d="M27 20.5H57C57.663 20.5 58.2987 20.7636 58.7676 21.2324C59.2364 21.7013 59.5 22.337 59.5 23V33.5C59.5 43.1977 54.8147 49.0571 50.8955 52.2734C47.1737 55.3134 43.4768 56.5934 42.5088 56.8936L42.2686 56.9648C42.0967 57.0116 41.915 57.0116 41.7432 56.9648H41.7422C41.5888 56.9234 37.3634 55.747 33.1162 52.2734C29.1861 49.0574 24.5 43.1983 24.5 33.5V23C24.5 22.337 24.7636 21.7013 25.2324 21.2324C25.7013 20.7636 26.337 20.5 27 20.5ZM49.5 29.999C49.2373 29.999 48.9771 30.0508 48.7344 30.1514C48.4916 30.2519 48.2708 30.3992 48.085 30.585L38.999 39.6719L35.9189 36.5859V36.585L35.7715 36.4521C35.4155 36.1606 34.9681 35.9991 34.5039 35.999C33.9733 35.999 33.4641 36.2098 33.0889 36.585C32.7136 36.9602 32.5029 37.4693 32.5029 38C32.5029 38.5307 32.7136 39.0398 33.0889 39.415L37.5889 43.915C37.7746 44.1009 37.9956 44.248 38.2383 44.3486C38.481 44.4492 38.7412 44.501 39.0039 44.501C39.2667 44.501 39.5268 44.4493 39.7695 44.3486C40.0123 44.248 40.2332 44.1009 40.4189 43.915L51.7725 32.5615H51.4199C51.4732 32.3794 51.501 32.1905 51.501 32C51.501 31.7373 51.4492 31.4771 51.3486 31.2344C51.2481 30.9916 51.1008 30.7708 50.915 30.585C50.7292 30.3992 50.5084 30.2519 50.2656 30.1514C50.0229 30.0508 49.7627 29.999 49.5 29.999Z" stroke="#00FFFF"/>
</g>
<defs>
<filter id="filter0_d_585_299" x="0" y="0" width="84" height="85.5" filterUnits="userSpaceOnUse" color-interpolation-filters="sRGB">
<feFlood flood-opacity="0" result="BackgroundImageFix"/>
<feColorMatrix in="SourceAlpha" type="matrix" values="0 0 0 0 0 0 0 0 0 0 0 0 0 0 0 0 0 0 127 0" result="hardAlpha"/>
<feOffset dy="4"/>
<feGaussianBlur stdDeviation="12"/>
<feComposite in2="hardAlpha" operator="out"/>
<feColorMatrix type="matrix" values="0 0 0 0 1 0 0 0 0 0 0 0 0 0 1 0 0 0 0.8 0"/>
<feBlend mode="normal" in2="BackgroundImageFix" result="effect1_dropShadow_585_299"/>
<feBlend mode="normal" in="SourceGraphic" in2="effect1_dropShadow_585_299" result="shape"/>
</filter>
<linearGradient id="paint0_linear_585_299" x1="42" y1="20" x2="42" y2="57.5001" gradientUnits="userSpaceOnUse">
<stop stop-color="#00FFFF"/>
<stop offset="1" stop-color="#009999"/>
</linearGradient>
</defs>
</svg>
