<svg width="47" height="48" viewBox="0 0 47 48" fill="none" xmlns="http://www.w3.org/2000/svg">
<g filter="url(#filter0_d_331_480)">
<path d="M31 13.25V17.625C31 21.7437 29.0063 24.2398 27.3336 25.6086C25.532 27.082 23.7398 27.5828 23.6617 27.6031C23.5543 27.6323 23.441 27.6323 23.3336 27.6031C23.2555 27.5828 21.4656 27.082 19.6617 25.6086C17.9938 24.2398 16 21.7437 16 17.625V13.25C16 12.9185 16.1317 12.6005 16.3661 12.3661C16.6005 12.1317 16.9185 12 17.25 12H29.75C30.0815 12 30.3995 12.1317 30.6339 12.3661C30.8683 12.6005 31 12.9185 31 13.25Z" fill="#FFD700"/>
</g>
<defs>
<filter id="filter0_d_331_480" x="0" y="0" width="47" height="47.6251" filterUnits="userSpaceOnUse" color-interpolation-filters="sRGB">
<feFlood flood-opacity="0" result="BackgroundImageFix"/>
<feColorMatrix in="SourceAlpha" type="matrix" values="0 0 0 0 0 0 0 0 0 0 0 0 0 0 0 0 0 0 127 0" result="hardAlpha"/>
<feOffset dy="4"/>
<feGaussianBlur stdDeviation="8"/>
<feComposite in2="hardAlpha" operator="out"/>
<feColorMatrix type="matrix" values="0 0 0 0 1 0 0 0 0 0.843137 0 0 0 0 0 0 0 0 0.5 0"/>
<feBlend mode="normal" in2="BackgroundImageFix" result="effect1_dropShadow_331_480"/>
<feBlend mode="normal" in="SourceGraphic" in2="effect1_dropShadow_331_480" result="shape"/>
</filter>
</defs>
</svg>
