<svg width="51" height="46" viewBox="0 0 51 46" fill="none" xmlns="http://www.w3.org/2000/svg">
<g filter="url(#filter0_d_425_1077)">
<path d="M20.3832 19.8007C20.3853 19.843 20.3788 19.8853 20.364 19.925C20.3493 19.9648 20.3266 20.0011 20.2973 20.0318C20.2681 20.0625 20.2329 20.0869 20.194 20.1036C20.155 20.1203 20.113 20.1288 20.0707 20.1288H16.6238C16.4827 20.129 16.3457 20.0815 16.2351 19.994C16.1245 19.9064 16.0467 19.7841 16.0144 19.6468C15.9943 19.5528 15.9952 19.4555 16.0171 19.3619C16.039 19.2683 16.0813 19.1807 16.141 19.1053C16.6924 18.3741 17.424 17.7983 18.2644 17.4343C17.8954 17.0978 17.6125 16.6779 17.4392 16.2097C17.2659 15.7414 17.2073 15.2384 17.2683 14.7429C17.3294 14.2473 17.5083 13.7736 17.7901 13.3614C18.0718 12.9492 18.4483 12.6106 18.8879 12.3738C19.3275 12.137 19.8174 12.009 20.3166 12.0005C20.8158 11.9919 21.3098 12.1032 21.7572 12.3248C22.2046 12.5465 22.5924 12.8722 22.8881 13.2745C23.1837 13.6769 23.3787 14.1442 23.4566 14.6374C23.4667 14.7037 23.4548 14.7715 23.4228 14.8304C23.3908 14.8894 23.3404 14.9363 23.2793 14.9639C22.4124 15.3647 21.6782 16.0051 21.1634 16.8095C20.6486 17.6139 20.3746 18.5487 20.3738 19.5038C20.3738 19.6038 20.3738 19.7022 20.3832 19.8007ZM34.6019 19.1046C34.0518 18.3741 33.3218 17.7987 32.4832 17.4343C32.8521 17.0978 33.1351 16.6779 33.3084 16.2097C33.4817 15.7414 33.5403 15.2384 33.4792 14.7429C33.4182 14.2473 33.2393 13.7736 32.9575 13.3614C32.6757 12.9492 32.2993 12.6106 31.8597 12.3738C31.4201 12.137 30.9302 12.009 30.431 12.0005C29.9317 11.9919 29.4377 12.1032 28.9903 12.3248C28.5429 12.5465 28.1552 12.8722 27.8595 13.2745C27.5638 13.6769 27.3689 14.1442 27.291 14.6374C27.2809 14.7037 27.2928 14.7715 27.3248 14.8304C27.3568 14.8894 27.4072 14.9363 27.4683 14.9639C28.3352 15.3647 29.0694 16.0051 29.5842 16.8095C30.099 17.6139 30.373 18.5487 30.3738 19.5038C30.3738 19.6038 30.3738 19.7022 30.3644 19.8007C30.3623 19.843 30.3688 19.8853 30.3836 19.925C30.3983 19.9648 30.421 20.0011 30.4502 20.0318C30.4795 20.0625 30.5146 20.0869 30.5536 20.1036C30.5926 20.1203 30.6345 20.1288 30.6769 20.1288H34.1238C34.2649 20.129 34.4018 20.0815 34.5125 19.994C34.6231 19.9064 34.7009 19.7841 34.7332 19.6468C34.7534 19.5526 34.7524 19.4551 34.7304 19.3613C34.7084 19.2676 34.6658 19.1799 34.6058 19.1046H34.6019ZM27.6488 22.478C28.2711 22.0014 28.7284 21.3418 28.9565 20.5919C29.1845 19.8419 29.1719 19.0394 28.9203 18.2971C28.6686 17.5547 28.1907 16.9098 27.5537 16.4531C26.9167 15.9964 26.1525 15.7508 25.3687 15.7508C24.5849 15.7508 23.8207 15.9964 23.1837 16.4531C22.5467 16.9098 22.0688 17.5547 21.8172 18.2971C21.5655 19.0394 21.5529 19.8419 21.7809 20.5919C22.009 21.3418 22.4663 22.0014 23.0886 22.478C21.9844 22.9565 21.0623 23.7759 20.4574 24.8163C20.4025 24.9113 20.3736 25.0191 20.3736 25.1288C20.3737 25.2385 20.4025 25.3463 20.4574 25.4413C20.5123 25.5364 20.5912 25.6153 20.6862 25.6701C20.7813 25.7249 20.8891 25.7538 20.9988 25.7538H29.7488C29.8585 25.7538 29.9663 25.7249 30.0613 25.6701C30.1564 25.6153 30.2353 25.5364 30.2902 25.4413C30.345 25.3463 30.3739 25.2385 30.3739 25.1288C30.3739 25.0191 30.3451 24.9113 30.2902 24.8163C29.684 23.7752 28.7602 22.9557 27.6543 22.478H27.6488Z" fill="#FFD700"/>
</g>
<defs>
<filter id="filter0_d_425_1077" x="0" y="0" width="50.7476" height="45.7538" filterUnits="userSpaceOnUse" color-interpolation-filters="sRGB">
<feFlood flood-opacity="0" result="BackgroundImageFix"/>
<feColorMatrix in="SourceAlpha" type="matrix" values="0 0 0 0 0 0 0 0 0 0 0 0 0 0 0 0 0 0 127 0" result="hardAlpha"/>
<feOffset dy="4"/>
<feGaussianBlur stdDeviation="8"/>
<feComposite in2="hardAlpha" operator="out"/>
<feColorMatrix type="matrix" values="0 0 0 0 1 0 0 0 0 0.843137 0 0 0 0 0 0 0 0 0.5 0"/>
<feBlend mode="normal" in2="BackgroundImageFix" result="effect1_dropShadow_425_1077"/>
<feBlend mode="normal" in="SourceGraphic" in2="effect1_dropShadow_425_1077" result="shape"/>
</filter>
</defs>
</svg>
