<svg width="122" height="141" viewBox="0 0 122 141" fill="none" xmlns="http://www.w3.org/2000/svg">
<path d="M7.56326 110.867C22.674 123.009 41.6253 132.305 63.0275 139.784C67.0489 141.189 71.5074 140.691 75.1184 138.454C88.7981 129.981 102.849 115.853 117.072 99.1081C118.73 97.156 119.78 94.7742 120.149 92.2579C123.458 69.7502 121.642 48.8635 112.479 30.3C111.489 28.2935 110.02 26.543 108.187 25.2275C92.0274 13.6341 75.8631 4.35613 59.69 0.396643C55.015 -0.747889 50.0706 0.628967 46.638 3.95279L5.9366 43.3672C3.75405 45.4801 2.34023 48.2466 1.91255 51.2283C-0.78772 70.0497 -0.767764 87.5947 2.86665 103.442C3.5376 106.362 5.2067 108.974 7.56326 110.867Z" fill="#E2D4FC"/>
<path d="M46.639 3.95368L46.4546 4.13238L47.5299 58.1441C73.1102 75.6465 96.4092 87.7496 118.069 95.9723C118.351 96.0787 118.635 96.163 118.919 96.2523C119.527 94.9937 119.946 93.6484 120.151 92.2579C123.459 69.7502 121.642 48.8636 112.48 30.3C111.49 28.2935 110.021 26.5422 108.188 25.2275C92.0284 13.6341 75.8641 4.35616 59.6911 0.396679C55.0152 -0.747002 50.0717 0.630711 46.639 3.95368Z" fill="#CDB2F9"/>
<path d="M54.7915 0.113281C51.7614 0.465576 48.8776 1.78624 46.6387 3.95446L5.93739 43.3689C3.75484 45.4818 2.34101 48.2483 1.91333 51.23C-0.786934 70.0514 -0.767844 87.5964 2.86743 103.444C3.27174 105.204 4.04401 106.849 5.10715 108.297C20.6975 97.2572 38.1025 82.0362 49.4931 68.3878C52.3232 64.9967 54.1838 60.9258 54.8201 56.5842C57.0771 41.1735 56.9697 19.5814 54.7915 0.113281Z" fill="white"/>
<path d="M63.4204 114.594C67.7015 114.17 71.6502 116.201 72.2337 119.135C72.818 122.075 69.8044 124.801 65.5059 125.218C61.2144 125.634 57.2797 123.589 56.7109 120.656C56.1438 117.729 59.1454 115.017 63.4204 114.594Z" fill="#2B1D3F"/>
<path d="M60.1382 97.876C64.3943 97.4412 68.3161 99.4375 68.8936 102.34C69.4719 105.249 66.4738 107.957 62.2014 108.384C57.9358 108.812 54.0269 106.801 53.4642 103.9C52.9032 101.005 55.8892 98.31 60.1382 97.876Z" fill="#2B1D3F"/>
<path d="M56.8908 81.3386C61.1217 80.8935 65.0175 82.8558 65.5889 85.7278C66.1612 88.6049 63.1787 91.2964 58.9322 91.7355C54.6927 92.1729 50.8089 90.197 50.2522 87.3267C49.6973 84.4607 52.6668 81.7828 56.8908 81.3386Z" fill="#2B1D3F"/>
<path d="M86.5314 48.7832C88.9131 47.26 93.1596 49.3398 96.0677 53.4635C99.0112 57.6391 99.5004 62.3679 97.1083 63.9889C94.6963 65.6245 90.32 63.4537 87.3868 59.1785C84.4909 54.9569 84.1307 50.3184 86.5314 48.7832Z" fill="#2B1D3F"/>
<path d="M70.6851 25.999C73.0477 24.618 77.1219 26.5888 79.8317 30.4325C82.5744 34.3231 82.9112 38.6944 80.5365 40.1632C78.1427 41.6438 73.9498 39.5913 71.2192 35.6114C68.5224 31.68 68.3043 27.3912 70.6851 25.999Z" fill="#2B1D3F"/>
<path d="M25.3097 71.9271C25.3842 74.9582 23.5237 79.1602 21.168 81.2995C18.8261 83.4251 16.8816 82.7044 16.8115 79.7039C16.7414 76.706 18.569 72.5389 20.9065 70.3826C23.2579 68.2135 25.2353 68.8985 25.3097 71.9271Z" fill="#2B1D3F"/>
<path d="M39.1978 59.218C39.2792 62.2985 37.3547 66.6043 34.9133 68.821C32.4866 71.0233 30.4685 70.3255 30.3914 67.2765C30.3144 64.2301 32.2043 59.9618 34.6266 57.7272C37.0637 55.4789 39.1164 56.1401 39.1978 59.218Z" fill="#2B1D3F"/>
<path d="M24.9417 56.9327C25.0153 59.951 23.16 64.1777 20.8095 66.3579C18.4738 68.5253 16.5336 67.8479 16.4643 64.8585C16.3951 61.8725 18.2183 57.6824 20.5498 55.4852C22.8959 53.2753 24.8681 53.9161 24.9417 56.9327Z" fill="#2B1D3F"/>
<path d="M38.7949 43.9796C38.8763 47.0473 36.956 51.3778 34.5207 53.6371C32.1009 55.8827 30.0872 55.2292 30.011 52.1922C29.9348 49.1577 31.8196 44.8654 34.2359 42.5891C36.6669 40.2992 38.7135 40.9145 38.7949 43.9796Z" fill="#2B1D3F"/>
<path d="M24.5762 41.9996C24.6498 45.006 22.7988 49.2557 20.4544 51.4775C18.1246 53.6858 16.1897 53.0509 16.1196 50.0743C16.0503 47.1002 17.8693 42.8863 20.1947 40.6483C22.5348 38.3975 24.5026 38.9958 24.5762 41.9996Z" fill="#2B1D3F"/>
<path d="M38.3945 28.8048C38.475 31.8597 36.5607 36.2149 34.1315 38.5167C31.7177 40.8041 29.7101 40.1948 29.6331 37.1705C29.5569 34.1488 31.4372 29.8319 33.8475 27.5139C36.2716 25.1814 38.3131 25.7524 38.3945 28.8048Z" fill="#2B1D3F"/>
</svg>
